<svg width="94" height="91" viewBox="0 0 94 91" fill="none" xmlns="http://www.w3.org/2000/svg">
<path d="M0 20C0 8.9543 8.95431 0 20 0H74C85.0457 0 94 8.95431 94 20V71C94 82.0457 85.0457 91 74 91H20C8.9543 91 0 82.0457 0 71V20Z" fill="#E30808"/>
<path d="M35.125 25.6875C37.2083 25.8125 38.9583 25.9167 40.375 26C41.8333 26.0417 43.0417 26.0833 44 26.125C45.0833 26.1667 46 26.1667 46.75 26.125C47.5 26.0833 48.5208 25.9792 49.8125 25.8125C50.8958 25.6875 52.3333 25.5 54.125 25.25C55.9583 24.9583 58.2292 24.5833 60.9375 24.125C59.9792 25.0833 59.2292 25.9583 58.6875 26.75C58.1875 27.5 57.7917 28.1458 57.5 28.6875C57.1667 29.3542 56.9375 29.9167 56.8125 30.375C56.7292 30.7917 56.8125 31.8333 57.0625 33.5C57.3125 35.1667 57.6667 37.1458 58.125 39.4375C58.5833 41.6875 59.0833 44.1042 59.625 46.6875C60.1667 49.2292 60.7083 51.625 61.25 53.875C61.7917 56.0833 62.2708 57.9792 62.6875 59.5625C63.1458 61.1042 63.4792 62.0208 63.6875 62.3125C64.3125 63.1875 64.7083 63.7708 64.875 64.0625C65.0417 64.3125 65.3333 64.5417 65.75 64.75C65.9167 64.8333 66.1875 64.9583 66.5625 65.125C66.8958 65.2917 67.3333 65.5 67.875 65.75C68.4583 66 69.1875 66.2917 70.0625 66.625C68.4375 66.7083 67.0417 66.7708 65.875 66.8125C64.7083 66.8125 63.75 66.8333 63 66.875C62.125 66.9167 61.375 66.9583 60.75 67C60.125 67 59.375 67.0417 58.5 67.125C57.75 67.2083 56.7708 67.2917 55.5625 67.375C54.3958 67.4583 53.0208 67.5417 51.4375 67.625C52.2708 67.0417 52.9375 66.5208 53.4375 66.0625C53.9792 65.5625 54.3958 65.1458 54.6875 64.8125C55.0208 64.3958 55.25 64.0208 55.375 63.6875C55.4583 63.3125 55.5208 62.75 55.5625 62C55.6042 61.3333 55.6042 60.4583 55.5625 59.375C55.5208 58.25 55.4167 56.7917 55.25 55L38.8125 56.6875C38.3958 57.3958 38.0833 58.0208 37.875 58.5625C37.6667 59.0625 37.5208 59.5 37.4375 59.875C37.3125 60.3333 37.2708 60.7083 37.3125 61C37.3958 61.3333 37.5417 61.7292 37.75 62.1875C37.9583 62.6042 38.25 63.1042 38.625 63.6875C39.0417 64.2292 39.6458 64.875 40.4375 65.625C39.3958 65.5833 38.3333 65.5625 37.25 65.5625C36.1667 65.5625 35.1667 65.5833 34.25 65.625C33.1667 65.6667 32.1042 65.7083 31.0625 65.75C30.0208 65.7917 28.8333 65.8542 27.5 65.9375C26.375 66.0208 25.0625 66.125 23.5625 66.25C22.0208 66.3333 20.375 66.4583 18.625 66.625C19.7083 66.125 20.625 65.625 21.375 65.125C22.125 64.5833 22.75 64.0833 23.25 63.625C23.8333 63.125 24.3333 62.6458 24.75 62.1875C25.0417 61.7708 25.625 60.8125 26.5 59.3125C27.375 57.7708 28.3542 55.9583 29.4375 53.875C30.5625 51.7917 31.7292 49.5625 32.9375 47.1875C34.1875 44.8125 35.3125 42.5833 36.3125 40.5C37.3125 38.375 38.125 36.5417 38.75 35C39.375 33.4583 39.6875 32.4583 39.6875 32C39.6042 31.4583 39.3958 30.8542 39.0625 30.1875C38.7708 29.6042 38.3125 28.9375 37.6875 28.1875C37.1042 27.4375 36.25 26.6042 35.125 25.6875ZM54.5 50.375C54.25 48.9167 54.0208 47.6667 53.8125 46.625C53.6042 45.5417 53.4375 44.6458 53.3125 43.9375C53.1458 43.1042 53.0208 42.375 52.9375 41.75C52.8125 41.1667 52.6667 40.4167 52.5 39.5C52.3333 38.7083 52.125 37.7292 51.875 36.5625C51.6667 35.3542 51.3958 33.9167 51.0625 32.25C48.6875 37 46.8333 40.6875 45.5 43.3125C44.2083 45.8958 43.2708 47.7917 42.6875 49C41.9792 50.4167 41.5833 51.25 41.5 51.5L54.5 50.375Z" fill="#FAF0F0"/>
</svg>
